<?xml version="1.0" encoding="UTF-8"?>
<svg id="Layer_1" xmlns="http://www.w3.org/2000/svg" version="1.1" viewBox="0 0 60.8 49">
  <!-- Generator: Adobe Illustrator 30.2.1, SVG Export Plug-In . SVG Version: 2.1.1 Build 1)  -->
  <defs>
    <style>
      .st0 {
        fill: #ee5f46;
      }

      .st1 {
        fill: #fff;
      }

      .st2 {
        fill: #101416;
        stroke: #101416;
        stroke-miterlimit: 10;
        stroke-width: .9px;
      }

      .st3 {
        fill: #0047ba;
      }

      .st4 {
        fill: #e1251b;
      }
    </style>
  </defs>
  <path class="st3" d="M59.4,29.4l-.8-2.4c0-.3-.2-.6-.3-.8.3-.5.4-1.1.4-1.8,0-1.2-.4-1.8-.8-2-.4-.3-.9-.3-1.5,0l-2.5,1h0s-3.6,1.4-3.6,1.4v.5c-.5-.2-1-.2-1.7,0-1.6.6-2.7,2.7-2.7,5.1,0,0,0,.1,0,.2l-.9-3.8-2.5,1-1.1,6-.8.3v-5.6s-3,1.2-3,1.2v1.3s.4,0,.4,0c0,.2,0,.4,0,.5v6.2s3.9-1.5,3.9-1.5h0s1.6-.6,1.6-.6l.2-1.6h.2c0,0,.3,1.3.3,1.3l2.5-1-.4-1.7c.2.3.4.6.7.7.3.2.7.3,1.1.3s.6,0,.9-.2h0c.6-.3,1.2-.7,1.7-1.2v.4s3.9-1.6,3.9-1.6h0s2.2-.9,2.2-.9v-.4s.1.4.1.4l2.4-1ZM54.3,25.9l-1.1.4h0c0,0,1.1-.5,1.1-.5h0ZM53.3,29.2h0c0-.1,1.1-.6,1.1-.6h0c0,.1-1.1.6-1.1.6ZM49.5,27.7c0,0,.1,0,.2.1l.3.2-1.3.5c.2-.4.4-.7.7-.8,0,0,.1,0,.2,0Z"/>
  <g>
    <path class="st1" d="M38.8,36.9v-5.3c0-.7,0-1.2-.4-1.2v-.2s1.6-.6,1.6-.6v5.6s1.4-.5,1.4-.5v1.3s-2.5,1-2.5,1Z"/>
    <path class="st1" d="M44.7,34.5l-.3-1.4-1.3.5-.2,1.6-1.2.5,1.4-7.4,1.4-.6,1.4,6.3-1.3.5ZM43.9,30.1c0-.1,0-.5,0-.6h0c0,0,0,.5,0,.6l-.3,2.3.9-.3-.4-2Z"/>
    <path class="st1" d="M48.8,33c-1.3.5-2.3-.3-2.3-2.7,0-2.2,1-4,2.3-4.5.6-.2,1-.2,1.3,0v1.4c-.3-.2-.6-.4-1.1-.2-.8.3-1.3,1.4-1.3,2.7,0,1.3.5,2,1.2,1.7.1,0,.2,0,.3-.1v-1.1s-.5.2-.5.2v-1.2s1.6-.6,1.6-.6v3.3c-.4.5-1,.9-1.5,1.1Z"/>
    <path class="st1" d="M51.4,31.9v-5.3c0-.7,0-1.2-.4-1.2v-.2s2.9-1.2,2.9-1.2v1.3s-1.3.5-1.3.5v1.5s1.3-.5,1.3-.5v1.2s-1.3.5-1.3.5v1.6s1.4-.6,1.4-.6v1.3s-2.6,1-2.6,1Z"/>
    <path class="st1" d="M57.4,29.5l-.4-1.3c-.4-1.2-.5-1.2-.7-1.1h0s0,2.8,0,2.8l-1.2.5v-5.3c0-.7,0-1.2-.4-1.2v-.2s2.1-.8,2.1-.8c.8-.3,1.3.2,1.4,1.5,0,.7-.2,1.4-.6,1.8.3.2.5.7.6,1l.6,1.8-1.2.5ZM56.4,24.3h-.2c0,0,0,1.8,0,1.8h.2c.3-.2.5-.6.5-1.2s-.2-.8-.5-.7Z"/>
  </g>
  <g>
    <path class="st2" d="M59.9,13.5h0c-.3-.5-.7-.6-.9-.6-.6,0-.9.5-1.3,1.3,0,.1-.1.3-.2.4,0-.5,0-1.2.2-2l.4-4.6c0-.1,0-.2,0-.4-.2-.6-.5-.9-.9-1,.1-.1.2-.3.3-.5.6-1.1.7-2.3.4-3.4-.4-1.3-1.3-1.7-1.8-1.8-.8-.2-1.6,0-2.3.7-1.3,1.1-1.6,3.2-1.2,4.4.5,1.2,1.2,1.7,1.8,1.8-.4.3-.8.7-1.1,1.1,0,.1-.2.3-.2.4-.2-.3-.5-.6-.8-.7-.7-.4-1.7-.4-2.7.6h0c-.4.5-.8,1-1.1,1.5-.2-.2-.5-.4-.9-.4-.8,0-2.3.5-3.1,1.5,0,0-.1-.1-.2-.2-.3-.2-.8-.3-1.2-.2-.7.2-1.3.8-1.9,1.7-.4-.2-.9-.2-1.4-.1-.3,0-.5.1-.8.3-.6.3-1.3.9-1.9,1.7-.6.7-1.1,1.7-1.6,2.7,0,.2-.2.4-.2.6,0-.4,0-.8,0-1,0-.4,0-.8,0-1.1h0c0,0,0-.1,0-.2,2.8-1.3,2.8-3.4,2.6-4.2-.1-.8-.7-2.1-1.6-2.1-.4,0-.7.2-.9.5,0-.7,0-1.3.1-1.7,0-.3,0-.5,0-.7,0,0,0,.2,0,.4v1c0,0,1,0,1,0,1.6-.2,2.9-1.8,2.8-3.4,0-1.2-1-2.4-3.2-2.4-2.2,0-4.9,1.7-5.7,6.6-.3,1.6-.3,2.7-.3,3.4,0,.3,0,.6,0,.8-1.4.8-2.2,1.9-2.2,3.2,0,0,0,0,0,0-.7.2-1.3.8-1.9,1.7-.4-.2-.9-.2-1.4-.1-.3,0-.5.1-.8.3-.6.3-1.3.9-1.9,1.7-.6.7-1.1,1.7-1.6,2.7-.5,1-.8,2.2-1,3.4,0,.4-.1.9-.2,1.3-1.2-1.1-2.8-2.1-4.3-3-1-.6-1.9-1.1-2.7-1.7,2-1.2,5.4-3.8,6.9-7.2.9-2.1.4-4.2-1.2-5.4-2.6-1.8-6.1-.5-8.4,1.7-2.7,2.5-4.1,6-4,10.1-1.3-.2-2.4-.7-3.3-1.5-.3-.3-.7-.4-1.1-.2-.4.2-.7.5-.7.9,0,1.3.6,3.4,2.8,4.2,1.1.4,2.2.3,2.9,0,.2.6.5,1.3,1.1,2.1,1.1,1.4,3,2.5,4.7,3.5,1.2.7,2.4,1.4,3,2,.8.8,1.1,1.8.9,3.2-.3,2.2-1.6,5-4,6.1-.9.4-1.8.4-2.4,0-.5-.3-.8-.9-.9-1.7-.1-1.4.7-3.4,2.2-4,.5-.2.7-.7.5-1.2-.3-.7-1-1.3-2-1.3s0,0,0,0c-.1,0-.2,0-.3,0-1.9.3-3.6,1.8-4.5,4.1-1,2.4-.9,4.8.4,6.5,1.3,1.8,3.1,2.7,5.2,2.7s.2,0,.2,0c3.2-.1,6.8-2.4,9.1-5.9,1.6-2.5,2.4-5.1,2.3-7.7.3.1.6.2.9.2s.3,0,.4,0c.2,0,.4,0,.7-.2.8-.4,1.5-1.1,2.1-2.2.1-.2.2-.4.3-.6.5.6,1.2.8,1.9.7.2,0,.4,0,.6-.2,0,0,0,0,0,0,.5-.2.9-.6,1.4-1.1-.2,3.2-.6,6.2-1.3,8.3l-.5,1.5,1.5-.3c4.1-.9,5.5-10.1,5.5-13.3h0c.1.2.3.4.5.6.7.7,1.4.9,2,.9s.3,0,.4,0c.2,0,.4,0,.7-.2.8-.4,1.5-1.1,2.1-2.2.1-.2.2-.4.3-.6.5.6,1.2.8,1.9.7.2,0,.4,0,.6-.2,0,0,0,0,0,0,.6-.3,1.1-.8,1.7-1.5,0,0,0,0,0,0,0,0,.2.1.3.2.3.2.5.2.9.2s.7,0,1-.2c1.6-.7,1.7-1.1,1.7-2.7,0-.5,0-1.3.1-2.3.1-1.3.3-2.5.5-3.6.2-.9.4-1.7.6-2.4.4.2.8.3,1.3.2.2,0,.4-.1.5-.2-.2,3.9.2,6.3,1.4,7.4.4.4.9.6,1.5.6s.3,0,.4,0c1.2-.2,2.1-1.5,2.8-2.7h0c.8-1.4,2.1-4.2,1.3-5.9ZM10.5,21.3c-.6-2.4.5-4.5,1.1-5.3.6-.9,1.7-1.8,2.4-1.8s.2,0,.3,0c.1,0,.4.2.4,1,0,.5-.2,1.1-.5,1.8-.4.9-1.1,1.7-1.9,2.6-.6.6-1.2,1.1-1.8,1.6ZM24.7,24.6c0,.7-.1,1.5-.3,2.3,0,.4-.2.9-.3,1.2,0-.3,0-.5,0-.8,0-.7.1-1.5.3-2.2,0-.4.2-.8.3-1.2,0,.2,0,.5,0,.8ZM30.4,22.3h0c0,.4,0,.9,0,1.4h0c0,.3,0,.6,0,.9,0,1.6,0,3.4-.2,5.1h0c-.6-.5-.6-1-.5-6,0-1.3,0-3,.1-5,0,0,.2-.3.6-.5,0,0,0,.2,0,.3,0,0,0,0,0,0,0,.9,0,2.2,0,3.7ZM39.9,18.6c0,.7-.1,1.5-.3,2.3,0,.4-.2.9-.3,1.2,0-.3,0-.5,0-.8,0-.7.1-1.5.3-2.2,0-.4.2-.8.3-1.2,0,.2,0,.5,0,.8Z"/>
    <path class="st1" d="M60.6,12.5h0c-.3-.5-.7-.6-.9-.6-.6,0-.9.5-1.3,1.3,0,.1-.1.3-.2.4,0-.5,0-1.2.2-2l.4-4.6c0-.1,0-.2,0-.4-.2-.6-.5-.9-.9-1,.1-.1.2-.3.3-.5.6-1.1.7-2.3.4-3.4-.4-1.3-1.3-1.7-1.8-1.8-.8-.2-1.6,0-2.3.7-1.3,1.1-1.6,3.2-1.2,4.4.5,1.2,1.2,1.7,1.8,1.8-.4.3-.8.7-1.1,1.1,0,.1-.2.3-.2.4-.2-.3-.5-.6-.8-.7-.7-.4-1.7-.4-2.7.6h0c-.4.5-.8,1-1.1,1.5-.2-.2-.5-.4-.9-.4-.8,0-2.3.5-3.1,1.5,0,0-.1-.1-.2-.2-.3-.2-.8-.3-1.2-.2-.7.2-1.3.8-1.9,1.7-.4-.2-.9-.2-1.4-.1-.3,0-.5.1-.8.3-.6.3-1.3.9-1.9,1.7-.6.7-1.1,1.7-1.6,2.7,0,.2-.2.4-.2.6,0-.4,0-.8,0-1,0-.4,0-.8,0-1.1h0c0,0,0-.1,0-.2,2.8-1.3,2.8-3.4,2.6-4.2-.1-.8-.7-2.1-1.6-2.1-.4,0-.7.2-.9.5,0-.7,0-1.3.1-1.7,0-.3,0-.5,0-.7,0,0,0,.2,0,.4v1c0,0,1,0,1,0,1.6-.2,2.9-1.8,2.8-3.4,0-1.2-1-2.4-3.2-2.4-2.2,0-4.9,1.7-5.7,6.6-.3,1.6-.3,2.7-.3,3.4,0,.3,0,.6,0,.8-1.4.8-2.2,1.9-2.2,3.2,0,0,0,0,0,0-.7.2-1.3.8-1.9,1.7-.4-.2-.9-.2-1.4-.1-.3,0-.5.1-.8.3-.6.3-1.3.9-1.9,1.7-.6.7-1.1,1.7-1.6,2.7-.5,1-.8,2.2-1,3.4,0,.4-.1.9-.2,1.3-1.2-1.1-2.8-2.1-4.3-3-1-.6-1.9-1.1-2.7-1.7,2-1.2,5.4-3.8,6.9-7.2.9-2.1.4-4.2-1.2-5.4-2.6-1.8-6.1-.5-8.4,1.7-2.7,2.5-4.1,6-4,10.1-1.3-.2-2.4-.7-3.3-1.5-.3-.3-.7-.4-1.1-.2-.4.2-.7.5-.7.9,0,1.3.6,3.4,2.8,4.2,1.1.4,2.2.3,2.9,0,.2.6.5,1.3,1.1,2.1,1.1,1.4,3,2.5,4.7,3.5,1.2.7,2.4,1.4,3,2,.8.8,1.1,1.8.9,3.2-.3,2.2-1.6,5-4,6.1-.9.4-1.8.4-2.4,0-.5-.3-.8-.9-.9-1.7-.1-1.4.7-3.4,2.2-4,.5-.2.7-.7.5-1.2-.3-.7-1-1.3-2-1.3s0,0,0,0c-.1,0-.2,0-.3,0-1.9.3-3.6,1.8-4.5,4.1-1,2.4-.9,4.8.4,6.5,1.3,1.8,3.1,2.7,5.2,2.7s.2,0,.2,0c3.2-.1,6.8-2.4,9.1-5.9,1.6-2.5,2.4-5.1,2.3-7.7.3.1.6.2.9.2s.3,0,.4,0c.2,0,.4,0,.7-.2.8-.4,1.5-1.1,2.1-2.2.1-.2.2-.4.3-.6.5.6,1.2.8,1.9.7.2,0,.4,0,.6-.2,0,0,0,0,0,0,.5-.2.9-.6,1.4-1.1-.2,3.2-.6,6.2-1.3,8.3l-.5,1.5,1.5-.3c4.1-.9,5.5-10.1,5.5-13.3h0c.1.2.3.4.5.6.7.7,1.4.9,2,.9s.3,0,.4,0c.2,0,.4,0,.7-.2.8-.4,1.5-1.1,2.1-2.2.1-.2.2-.4.3-.6.5.6,1.2.8,1.9.7.2,0,.4,0,.6-.2,0,0,0,0,0,0,.6-.3,1.1-.8,1.7-1.5,0,0,0,0,0,0,0,0,.2.1.3.2.3.2.5.2.9.2s.7,0,1-.2c1.6-.7,1.7-1.1,1.7-2.7,0-.5,0-1.3.1-2.3.1-1.3.3-2.5.5-3.6.2-.9.4-1.7.6-2.4.4.2.8.3,1.3.2.2,0,.4-.1.5-.2-.2,3.9.2,6.3,1.4,7.4.4.4.9.6,1.5.6s.3,0,.4,0c1.2-.2,2.1-1.5,2.8-2.7h0c.8-1.4,2.1-4.2,1.3-5.9ZM11.2,20.3c-.6-2.4.5-4.5,1.1-5.3.6-.9,1.7-1.8,2.4-1.8s.2,0,.3,0c.1,0,.4.2.4,1,0,.5-.2,1.1-.5,1.8-.4.9-1.1,1.7-1.9,2.6-.6.6-1.2,1.1-1.8,1.6ZM25.4,23.6c0,.7-.1,1.5-.3,2.3,0,.4-.2.9-.3,1.2,0-.3,0-.5,0-.8,0-.7.1-1.5.3-2.2,0-.4.2-.8.3-1.2,0,.2,0,.5,0,.8ZM31,21.3h0c0,.4,0,.9,0,1.4h0c0,.3,0,.6,0,.9,0,1.6,0,3.4-.2,5.1h0c-.6-.5-.6-1-.5-6,0-1.3,0-3,.1-5,0,0,.2-.3.6-.5,0,0,0,.2,0,.3,0,0,0,0,0,0,0,.9,0,2.2,0,3.7ZM40.5,17.6c0,.7-.1,1.5-.3,2.3,0,.4-.2.9-.3,1.2,0-.3,0-.5,0-.8,0-.7.1-1.5.3-2.2,0-.4.2-.8.3-1.2,0,.2,0,.5,0,.8Z"/>
    <g>
      <g>
        <path class="st4" d="M29.5,17.8c0-.2-.2-.4-.5-.3-.4.1-1.1.6-1.9,2.2-.5-.6-1.1-.6-1.5-.5-.2,0-.4.1-.6.2-.5.3-1,.7-1.6,1.5-.5.7-1,1.5-1.5,2.5-.4,1-.8,2.1-1,3.2-.2,1.2-.2,2.3,0,3.5.2,1.1.5,2,1,2.6.5.5,1,.7,1.5.6.1,0,.3,0,.4-.1.6-.3,1.2-.9,1.7-1.8.3-.6.7-1.5,1.1-2.5,0,0,0,0,0,0,.1.6.4,1.1.7,1.6.3.4.7.6,1.2.5.1,0,.3,0,.4-.1.5-.2.9-.6,1.3-1.2-1.3-1-.9-1.9-.7-11.7ZM26.3,23.6c0,.8-.1,1.6-.3,2.4-.1.8-.4,1.5-.6,2.1-.2.5-.5.9-.8,1,0,0,0,0-.1,0,0,0-.1,0-.3,0-.2-.2-.3-.4-.3-.8,0-.6,0-1.2,0-2,0-.8.1-1.6.3-2.4.2-.8.4-1.5.6-2.1.2-.5.5-.9.8-1,0,0,0,0,.1,0,.3,0,.4.3.6.9,0,.6,0,1.2,0,2Z"/>
        <path class="st0" d="M23.8,29.5s0,0,0,0c0,0,.1,0,.2,0,0,0,.1,0,.2-.1,0,0,0,0-.1,0-.2-.2-.3-.5-.4-1,0-.6,0-1.3,0-2,0-.8.1-1.6.3-2.4.2-.8.4-1.5.6-2.1.2-.5.5-.9.8-1.1,0,0-.2,0-.3,0s0,0,0,0c0,0-.1,0-.2,0h0s0,0,0,0c-.3.2-.6.6-.9,1.2-.3.6-.5,1.3-.6,2.1-.2.8-.3,1.6-.3,2.4,0,.8,0,1.5,0,2,0,.5.2.8.4,1,.1.1.3.2.4.2Z"/>
        <path class="st0" d="M29.1,22.9c0-1.3,0-3,.1-5.1,0,0,0,0,0,0,0,0,0,0,0,0s0,0,0,0c-.1,0-.3.1-.6.4,0,2,0,3.6-.1,4.9-.1,4.9-.2,5.8.8,6.7-.3.5-.7.8-1,1,0,0,0,0,0,0,0,0,.1,0,.2,0s.1,0,.2,0c.1,0,.2,0,.3,0,.4-.2.7-.5,1-1-.9-.8-.9-1.8-.8-6.7Z"/>
        <path class="st0" d="M26.3,28.8l-.2-.9-.3.9c-.3,1-.7,1.9-1,2.5-.5.9-1,1.4-1.6,1.7,0,0,0,0,0,0,0,0,.1,0,.2,0s.1,0,.2,0c.1,0,.2,0,.4-.1.6-.3,1.1-.8,1.6-1.7.3-.5.6-1.3.9-2.1,0,0,0-.2,0-.2Z"/>
      </g>
      <g>
        <path class="st4" d="M51.4,10.9c-.2.2-.4.7-.7,1.5-.3.8-.5,1.8-.8,3-.2,1.2-.4,2.4-.6,3.8-.4,3.7.4,3.6-1.4,4.4-1.7.7-1.7-.9-1.8-2.1-.2-2.1-.4-4.2-.4-6.9,0-.6-.2-2.1,0-2.7.2-1.2,2.9-2.1,2.9-1.5,0,1.6,0,2.6-.2,5.6,0,0,.4-4.8,2.6-7.2,1.5-1.6,3.1.4,2.5,2.7-.1.5-.1.7-.9,1s-.9-.2-.9-.6,0,0,0,0c0-.3,0-.5,0-.7,0-.2,0-.3-.1-.2Z"/>
        <path class="st0" d="M47.5,13.4c0,1,0,1.5-.1,3,0,.8.7.7.7,0,0-1.1,0-2.2,0-3,0-1.1,0-1.9,0-2.7,0,0,0,0,0,0-.2,0-.4,0-.6.1,0,.8,0,1.6,0,2.7Z"/>
        <path class="st0" d="M50.8,10.7h-.1s0,.1,0,.1c-.1.1-.3.4-.7,1.6-.3.8-.5,1.9-.8,3-.2,1.2-.4,2.5-.6,3.8-.1,1.1-.1,1.9-.1,2.5q0,1.2-1.1,1.7s0,0-.1,0c0,0,.1,0,.2,0,.2,0,.4,0,.6-.2q1.1-.5,1.1-1.7c0-.6,0-1.3.1-2.5.1-1.4.3-2.6.6-3.8.2-1.2.5-2.2.8-3,.3-.8.4-1.2.6-1.4,0-.1-.1-.3-.3-.3Z"/>
        <path class="st0" d="M52.1,8.6c-.1,0-.3,0-.4.1.3,0,.4.2.6.4.4.5.6,1.4.3,2.5h0c0,.4-.1.6-.4.7,0,0,.1,0,.2,0s0,0,.1,0c.6-.2.6-.3.7-.6h0c.3-1.3,0-2.2-.3-2.6-.2-.2-.4-.4-.8-.4Z"/>
      </g>
      <g>
        <g>
          <path class="st4" d="M54.1,4.9c-.4-.9,0-2.7.9-3.5.5-.4,1.1-.6,1.6-.5.4,0,.9.4,1.1,1.2.3.9.2,1.9-.3,2.8-.4.6-.9,1.1-1.3,1.3,0,0-.1,0-.2,0-.8.2-1.4-.2-1.8-1.3Z"/>
          <path class="st0" d="M56,1.2c.4,0,.8.5.9,1.1.3.9.2,1.8-.3,2.6-.3.6-.8,1-1.2,1.2,0,0,.1,0,.2,0,0,0,.2,0,.3,0,0,0,.1,0,.2,0,.4-.1.9-.6,1.2-1.2.5-.8.6-1.7.3-2.6-.2-.6-.5-1-.9-1.1,0,0-.2,0-.2,0-.2,0-.3,0-.5,0,0,0,0,0,0,0Z"/>
        </g>
        <g>
          <path class="st4" d="M58.6,17.9c-.4.6-1.3,2.1-2.3,2.3-.3,0-3.2.7-2.1-8.9.1-1.2.1-2.3.5-2.7.7-.9,2.5-2,2.7-2,.5-.1.5.4.6.4l-.4,4.6c-.2,1.9-.2,3.2-.1,4,0,.6.2.8.9-.4,1-1.8,1.3-2.7,1.5-2.2.6,1.3-.5,3.8-1.2,5Z"/>
          <path class="st0" d="M56.9,16.3c.1,0,.2,0,.4-.2-.1-.1-.2-.4-.2-.6-.1-.7,0-2.1.1-4l.4-4.5s0,0,0,0c0-.2-.1-.2-.2-.2s0,0,0,0c0,0-.2,0-.4.2,0,0,0,0,0,0,0,0,0,0,0,0l-.4,4.5c-.2,1.9-.2,3.3-.1,4,0,.2.1.7.5.7Z"/>
          <path class="st0" d="M59.6,13.2c0,.1-.2.3-.3.5,0,.2-.2.3-.3.5-.1,1.2-.8,2.7-1.3,3.7h0c-.3.6-1.1,1.8-1.8,2.1,0,0,.1,0,.2,0,0,0,.2,0,.2,0,.9-.2,1.7-1.6,2.1-2.1h0c.8-1.3,1.6-3.6,1.3-4.7Z"/>
        </g>
      </g>
      <g>
        <g>
          <path class="st4" d="M44.7,11.8c0-.2-.2-.4-.5-.3-.4.1-1.1.6-1.9,2.2-.5-.6-1.1-.6-1.5-.5-.2,0-.4.1-.6.2-.5.3-1,.7-1.6,1.5-.5.7-1,1.5-1.5,2.5-.4,1-.8,2.1-1,3.2-.2,1.2-.2,2.3,0,3.5.2,1.1.5,2,1,2.6.5.5,1,.7,1.5.6.1,0,.3,0,.4-.1.6-.3,1.2-.9,1.7-1.8.3-.6.7-1.5,1.1-2.5,0,0,0,0,0,0,.1.6.4,1.1.7,1.6.3.4.7.6,1.2.5.1,0,.3,0,.4-.1.5-.2.9-.6,1.3-1.2-1.3-1-.9-1.9-.7-11.7ZM41.5,17.7c0,.8-.1,1.6-.3,2.4-.1.8-.4,1.5-.6,2.1-.2.5-.5.9-.8,1,0,0,0,0-.1,0,0,0-.1,0-.3,0-.2-.2-.3-.4-.3-.8,0-.6,0-1.2,0-2,0-.8.1-1.6.3-2.4.2-.8.4-1.5.6-2.1.2-.5.5-.9.8-1,0,0,0,0,.1,0,.3,0,.4.3.6.9,0,.6,0,1.2,0,2Z"/>
          <path class="st0" d="M39,23.5s0,0,0,0c0,0,.1,0,.2,0,0,0,.1,0,.2,0,0,0,0,0-.1,0-.2-.2-.3-.5-.4-1,0-.6,0-1.3,0-2,0-.8.1-1.6.3-2.4.2-.8.4-1.5.6-2.1.2-.5.5-.9.8-1.1,0,0-.2,0-.3,0s0,0,0,0c0,0-.1,0-.2,0h0s0,0,0,0c-.3.2-.6.6-.9,1.2-.3.6-.5,1.3-.6,2.1-.2.8-.3,1.6-.3,2.4,0,.8,0,1.5,0,2,0,.5.2.8.4,1,.1.1.3.2.4.2Z"/>
          <path class="st0" d="M44.3,16.9c0-1.3,0-3,.1-5.1,0,0,0,0,0,0,0,0,0,0,0,0s0,0,0,0c-.1,0-.3.1-.6.4,0,2,0,3.6-.1,4.9-.1,4.9-.2,5.8.8,6.7-.3.5-.7.8-1,1,0,0,0,0,0,0,0,0,.1,0,.2,0s.1,0,.2,0c.1,0,.2,0,.3,0,.4-.2.7-.5,1-1-.9-.8-.9-1.8-.8-6.7Z"/>
        </g>
        <path class="st0" d="M41.4,22.8l-.2-.9-.3.9c-.3,1-.7,1.9-1,2.5-.5.9-1,1.4-1.6,1.7,0,0,0,0,0,0,0,0,.1,0,.2,0s.1,0,.2,0c.1,0,.2,0,.4-.1.6-.3,1.1-.8,1.6-1.7.3-.5.6-1.3.9-2.1,0,0,0-.2,0-.2Z"/>
      </g>
      <g>
        <path class="st4" d="M35.4,7.6c0,.9-.2,3.5-.2,4.6.6-.4,1.5-1.1,1.8-2.4.1-.6,2.7,3-1.9,4.8,0,.2,0,.5,0,.8,0,.3,0,.7,0,1.2,0,.9,0,4.1,0,6.6,0,1.5,0,2.8,0,3.4,0,3.4-1.4,11.7-4.8,12.4,2.1-6.6,1.6-22.7,1.6-22.9,0-.1,0-.2,0-.3-1.9.9-2,2-2,2-1.2-2.7,1.8-3.8,1.8-3.9,0,0,.1-.7.2-1.4,0-.7,0-1.8.3-3.3.7-4.4,3-5.8,4.8-5.8,3.7,0,2.3,3.7.3,3.9,0-1.4-.8-1.6-1.3-1.6-.2,0-.4.1-.5.3,0,.3-.2.8-.2,1.5Z"/>
        <path class="st0" d="M36.4,3.7c.3,0,.5,0,.7,0,1.3,0,2,.5,2,1.3,0,.8-.6,1.8-1.5,2.1,0,0,0-.2,0-.3.5-.4.9-1.2.9-1.7,0-.8-.8-1.3-2-1.3Z"/>
        <path class="st0" d="M31.5,15.7v-.3s-.4.2-.4.2c-.5.2-.8.5-1.1.7,0,.2,0,.4,0,.7.2-.4.7-.9,1.5-1.3Z"/>
        <path class="st0" d="M34.3,12.8l.4-.3c0,0,.2-.1.3-.2h0c0-1.2.1-3.9.2-4.8,0-.7.1-1.2.2-1.6,0-.2.2-.3.3-.4,0,0-.2,0-.3,0h0c-.3,0-.6.2-.7.5-.1.4-.2.9-.2,1.6,0,.9-.2,3.5-.2,4.7v.5Z"/>
        <path class="st0" d="M34.9,14.5h.2c1.6-.7,2.5-1.6,2.5-2.7,0-.7-.2-1.2-.4-1.5,0,.3-.2.6-.4.8,0,.2,0,.5,0,.8,0,1.1-1,2-2.5,2.6h-.2c0,0,0,.2,0,.2,0,.2,0,.5,0,.8,0,.3,0,.7,0,1.2,0,.9,0,4,0,6.6,0,1.5,0,2.8,0,3.4,0,3.3-1.1,9.2-3.3,11.4,0,.2,0,.4-.1.5,2.7-1.3,4.1-8.3,4.1-12,0-.7,0-2,0-3.4,0-2.5,0-5.7,0-6.6,0-.5,0-.8,0-1.2,0-.3,0-.6,0-.8v-.2Z"/>
      </g>
      <g>
        <path class="st4" d="M6.2,44.3c-1-1.4-1.1-3.5-.3-5.6.8-2,2.3-3.3,3.8-3.5,0,0,.1,0,.2,0,.7,0,1,.5,1.2.8-1.8.8-2.9,3.2-2.7,4.9.3,2.6,2.5,3.3,4.6,2.3,2.7-1.2,4.2-4.3,4.5-6.8.2-1.6-.2-2.9-1.2-3.9-1.6-1.7-5.9-3.1-7.7-5.4-.9-1.2-1.2-2.4-1.3-2.7-.3,0-1.8.7-3.3.2-1.7-.6-2.2-2.3-2.2-3.3s.2-.2.3-.1c.8.7,2.2,1.7,4.4,1.8h.5c0-.2-1-6.1,3.6-10.4,5-4.6,10-1.4,8.2,2.7-1.8,4-6.7,7-7.7,7.4,2.1,2.3,7.8,4.1,9.1,7.1,1.6,3.5,1.2,7.7-1.2,11.3-3.2,4.9-9.6,7.8-13,3.2ZM11.5,14.5c-1.2,1.8-2,4.5-.8,7.2l.5-.3c.9-.6,1.7-1.3,2.5-2.1.9-1,1.6-1.9,2.1-2.9.4-.8.6-1.5.6-2.2,0-.9-.3-1.5-1-1.8-1.3-.6-3,.8-3.9,2Z"/>
        <g>
          <path class="st0" d="M8.2,40.9c-.2-1.7.8-4.1,2.6-5.1-.1-.2-.4-.4-.8-.4s-.1,0-.2,0c-.2,0-.4,0-.6.1.2,0,.3.2.4.3-1.8.9-2.8,3.3-2.6,5.1.2,1.8,1.4,3,3.1,3s.5,0,.8,0c-1.6-.1-2.7-1.2-2.8-3Z"/>
          <path class="st0" d="M20.2,29.9c-.8-1.7-3-3-5.2-4.3-1.5-.9-3-1.8-3.9-2.7l-.2-.3h.3c.9-.5,5.8-3.4,7.5-7.4.5-1.2.5-2.4-.1-3.3-.6-.9-1.6-1.4-2.9-1.4s-.6,0-.9,0c1.2,0,2.1.5,2.7,1.4.6.9.7,2.1.1,3.3-1.8,4-6.7,6.9-7.5,7.3h-.3c0,.1.2.4.2.4.9,1,2.3,1.8,3.9,2.7,2.2,1.3,4.4,2.6,5.2,4.3,1.6,3.5,1.2,7.5-1.2,11.1-1.9,2.9-4.7,4.9-7.3,5.3,0,0,0,0,.1,0,2.9,0,6.2-2.2,8.3-5.4,2.3-3.6,2.8-7.6,1.2-11.1Z"/>
          <path class="st0" d="M10.3,21.7c-1.4-3.3.2-6.2.9-7.3.6-.9,1.6-1.8,2.7-2.2-.1,0-.2,0-.4,0-1.3,0-2.7,1.2-3.4,2.3-.7,1.1-2.3,4.1-.8,7.5v.3c.1,0,.9-.4.9-.4,0,0,0,0,.1-.1Z"/>
          <path class="st0" d="M5.6,23.3h.7c0,0,0-.1,0-.1-1.6-.2-3-.7-4.1-1.7,0,.3,0,.6.2,1,.9.5,2,.8,3.1.9Z"/>
        </g>
      </g>
    </g>
  </g>
</svg>